<?xml version="1.0" encoding="UTF-8"?>
<svg width="272px" height="68px" viewBox="0 0 272 68" version="1.1" xmlns="http://www.w3.org/2000/svg" xmlns:xlink="http://www.w3.org/1999/xlink">
    <!-- Generator: Sketch 50.2 (55047) - http://www.bohemiancoding.com/sketch -->
    <title>Logo</title>
    <desc>Created with Sketch.</desc>
    <defs></defs>
    <g id="Website" stroke="none" stroke-width="1" fill="none" fill-rule="evenodd">
        <g id="Forgot-password" transform="translate(-1207.000000, -334.000000)" fill="#059966">
            <g id="Logo" transform="translate(1207.000000, 334.000000)">
                <path d="M7.32934132,28.4883721 L14.1413776,28.4883721 C15.2442843,28.4883721 16.3147364,28.3159363 17.3527662,27.9710594 C18.3907959,27.6261826 19.3152773,27.0540092 20.1262381,26.254522 C20.9371988,25.4550348 21.5859577,24.4125818 22.0725342,23.1271318 C22.5591106,21.8416818 22.8023952,20.2740833 22.8023952,18.4242894 C22.8023952,16.7312577 22.632096,15.2028492 22.2914925,13.8390181 C21.950889,12.475187 21.3913344,11.3073261 20.6128121,10.3354005 C19.8342898,9.3634749 18.8043851,8.61886564 17.5230671,8.10155039 C16.2417491,7.58423514 14.6603993,7.3255814 12.7789704,7.3255814 L7.32934132,7.3255814 L7.32934132,28.4883721 Z M0,0.813953488 L14.6844539,0.813953488 C16.8775976,0.813953488 18.9197333,1.15670732 20.8109225,1.84222526 C22.7021116,2.52774321 24.3389986,3.5560047 25.7216327,4.92704058 C27.1042667,6.29807647 28.18493,8.01184562 28.963655,10.0683995 C29.7423799,12.1249533 30.1317365,14.5398098 30.1317365,17.3130415 C30.1317365,19.7435142 29.8138944,21.9869938 29.1782006,24.0435477 C28.5425067,26.1001015 27.5810343,27.8761895 26.2937543,29.371865 C25.0064743,30.8675405 23.4013714,32.0438094 21.4783976,32.9007068 C19.5554238,33.7576042 17.2907985,34.1860465 14.6844539,34.1860465 L0,34.1860465 L0,0.813953488 Z M35.8323353,0.813953488 L61.5075679,0.813953488 L61.5075679,6.98358413 L43.381046,6.98358413 L43.381046,14.1347469 L60.0170581,14.1347469 L60.0170581,19.8369813 L43.381046,19.8369813 L43.381046,28.0164159 L61.8922156,28.0164159 L61.8922156,34.1860465 L35.8323353,34.1860465 L35.8323353,0.813953488 Z M83.9105417,34.1860465 L75.418354,34.1860465 L64.3353293,0.813953488 L72.0598617,0.813953488 L79.6884371,24.2772458 L79.784394,24.2772458 L87.5089263,0.813953488 L95.2814371,0.813953488 L83.9105417,34.1860465 Z M105.868263,28.4883721 L112.6803,28.4883721 C113.783206,28.4883721 114.853659,28.3159363 115.891688,27.9710594 C116.929718,27.6261826 117.854199,27.0540092 118.66516,26.254522 C119.476121,25.4550348 120.12488,24.4125818 120.611456,23.1271318 C121.098033,21.8416818 121.341317,20.2740833 121.341317,18.4242894 C121.341317,16.7312577 121.171018,15.2028492 120.830415,13.8390181 C120.489811,12.475187 119.930257,11.3073261 119.151734,10.3354005 C118.373212,9.3634749 117.343307,8.61886564 116.061989,8.10155039 C114.780671,7.58423514 113.199321,7.3255814 111.317893,7.3255814 L105.868263,7.3255814 L105.868263,28.4883721 Z M98.5389222,0.813953488 L113.223376,0.813953488 C115.41652,0.813953488 117.458655,1.15670732 119.349845,1.84222526 C121.241034,2.52774321 122.877921,3.5560047 124.260555,4.92704058 C125.643189,6.29807647 126.723852,8.01184562 127.502577,10.0683995 C128.281302,12.1249533 128.670659,14.5398098 128.670659,17.3130415 C128.670659,19.7435142 128.352817,21.9869938 127.717123,24.0435477 C127.081429,26.1001015 126.119956,27.8761895 124.832676,29.371865 C123.545396,30.8675405 121.940294,32.0438094 120.01732,32.9007068 C118.094346,33.7576042 115.829721,34.1860465 113.223376,34.1860465 L98.5389222,34.1860465 L98.5389222,0.813953488 Z M135.185629,0.813953488 L160.860861,0.813953488 L160.860861,6.98358413 L142.734339,6.98358413 L142.734339,14.1347469 L159.370352,14.1347469 L159.370352,19.8369813 L142.734339,19.8369813 L142.734339,28.0164159 L161.245509,28.0164159 L161.245509,34.1860465 L135.185629,34.1860465 L135.185629,0.813953488 Z M171.713101,23.145917 C171.713101,24.2704206 171.918598,25.2231108 172.329598,26.0040161 C172.740599,26.7849214 173.285957,27.4174451 173.965689,27.9016064 C174.645421,28.3857677 175.443698,28.7449787 176.360546,28.9792503 C177.277394,29.2135219 178.225842,29.330656 179.205921,29.330656 C179.869845,29.330656 180.581181,29.2759934 181.339952,29.1666667 C182.098722,29.0573399 182.810059,28.8464987 183.473983,28.5341365 C184.137907,28.2217744 184.691169,27.792283 185.133785,27.2456493 C185.576401,26.6990156 185.797705,26.0040203 185.797705,25.1606426 C185.797705,24.2547924 185.505267,23.5207525 184.920382,22.9585007 C184.335496,22.3962489 183.568833,21.9277127 182.62037,21.5528782 C181.671907,21.1780436 180.596999,20.8500683 179.395612,20.5689424 C178.194226,20.2878165 176.97705,19.9754591 175.744048,19.6318608 C174.479431,19.3194987 173.246447,18.9368608 172.045061,18.4839357 C170.843675,18.0310107 169.768766,17.4453405 168.820303,16.7269076 C167.87184,16.0084748 167.105177,15.1104472 166.520292,14.0327979 C165.935406,12.9551486 165.642968,11.6510563 165.642968,10.1204819 C165.642968,8.40249029 166.014444,6.91098357 166.757406,5.645917 C167.500369,4.38085044 168.472529,3.32664411 169.673915,2.4832664 C170.875302,1.63988869 172.234745,1.01517383 173.752286,0.609103079 C175.269827,0.203032329 176.787345,0 178.304885,0 C180.07535,0 181.774654,0.195223394 183.402848,0.585676037 C185.031043,0.976128681 186.477428,1.60865248 187.742045,2.4832664 C189.006662,3.35788032 190.010437,4.47455813 190.7534,5.83333333 C191.496362,7.19210853 191.867838,8.83979398 191.867838,10.7764391 L184.659556,10.7764391 C184.596325,9.77688032 184.382924,8.94913313 184.019346,8.29317269 C183.655769,7.63721225 183.173641,7.12182249 182.572947,6.74698795 C181.972254,6.37215341 181.284629,6.1066496 180.510051,5.95046854 C179.735473,5.79428748 178.889773,5.71619813 177.972925,5.71619813 C177.372232,5.71619813 176.771548,5.77866961 176.170854,5.90361446 C175.570161,6.0285593 175.024803,6.2472095 174.534764,6.55957162 C174.044725,6.87193373 173.641634,7.26238052 173.32548,7.73092369 C173.009325,8.19946687 172.85125,8.79294598 172.85125,9.51137885 C172.85125,10.1673393 172.97771,10.6983469 173.230634,11.1044177 C173.483557,11.5104884 173.981493,11.8853173 174.724456,12.2289157 C175.467418,12.572514 176.494904,12.9161072 177.806945,13.2597055 C179.118985,13.6033038 180.834097,14.0406042 182.952331,14.5716198 C183.584639,14.6965647 184.461954,14.9230238 185.584302,15.251004 C186.70665,15.5789842 187.821077,16.1021829 188.927618,16.8206158 C190.034158,17.5390487 190.99051,18.4995478 191.796704,19.7021419 C192.602897,20.904736 193.005988,22.4430964 193.005988,24.3172691 C193.005988,25.8478434 192.705646,27.2690697 192.104953,28.5809906 C191.504259,29.8929115 190.611137,31.0252072 189.425558,31.9779116 C188.239979,32.9306161 186.769884,33.672465 185.015227,34.2034806 C183.260571,34.7344962 181.22931,35 178.921383,35 C177.056073,35 175.246116,34.7735409 173.49146,34.3206158 C171.736803,33.8676907 170.18767,33.1570776 168.844014,32.188755 C167.500359,31.2204325 166.433354,29.9866206 165.642968,28.4872825 C164.852582,26.9879443 164.473203,25.207507 164.504818,23.145917 L171.713101,23.145917 Z M197.892216,26.8604651 L205.221557,26.8604651 L205.221557,34.1860465 L197.892216,34.1860465 L197.892216,26.8604651 Z M228.054254,34.1860465 L219.562067,34.1860465 L208.479042,0.813953488 L216.203574,0.813953488 L223.83215,24.2772458 L223.928107,24.2772458 L231.652639,0.813953488 L239.42515,0.813953488 L228.054254,34.1860465 Z M243.497006,0.813953488 L250.870915,0.813953488 L264.956972,23.2022344 L265.051509,23.2022344 L265.051509,0.813953488 L272,0.813953488 L272,34.1860465 L264.578822,34.1860465 L250.540034,11.8445052 L250.445497,11.8445052 L250.445497,34.1860465 L243.497006,34.1860465 L243.497006,0.813953488 Z" id="DevDes.vn"></path>
                <path d="M1.44,48.72 L6.38,48.72 C8.5533442,48.7733336 10.1899945,49.3833275 11.29,50.55 C12.3900055,51.7166725 12.94,53.4866548 12.94,55.86 C12.94,58.2333452 12.3900055,60.0033275 11.29,61.17 C10.1899945,62.3366725 8.5533442,62.9466664 6.38,63 L1.44,63 L1.44,48.72 Z M2.8,61.84 L5.7,61.84 C6.7266718,61.84 7.6099963,61.7300011 8.35,61.51 C9.0900037,61.2899989 9.6999976,60.9400024 10.18,60.46 C10.6600024,59.9799976 11.0133322,59.3600038 11.24,58.6 C11.4666678,57.8399962 11.58,56.926672 11.58,55.86 C11.58,54.793328 11.4666678,53.8800038 11.24,53.12 C11.0133322,52.3599962 10.6600024,51.7400024 10.18,51.26 C9.6999976,50.7799976 9.0900037,50.4300011 8.35,50.21 C7.6099963,49.9899989 6.7266718,49.88 5.7,49.88 L2.8,49.88 L2.8,61.84 Z M32.9100002,57.12 C32.8966668,56.6399976 32.8133343,56.1800022 32.6600002,55.74 C32.5066661,55.2999978 32.2900016,54.9100017 32.0100002,54.57 C31.7299988,54.2299983 31.3900022,53.9566677 30.9900002,53.75 C30.5899982,53.5433323 30.1366694,53.44 29.6300002,53.44 C29.1099976,53.44 28.6500022,53.5433323 28.2500002,53.75 C27.8499982,53.9566677 27.5100016,54.2299983 27.2300002,54.57 C26.9499988,54.9100017 26.7266677,55.3033311 26.5600002,55.75 C26.3933327,56.1966689 26.2833338,56.653331 26.2300002,57.12 L32.9100002,57.12 Z M26.2300002,58.18 C26.2300002,58.6333356 26.2933329,59.1033309 26.4200002,59.59 C26.5466675,60.0766691 26.7499988,60.5133314 27.0300002,60.9 C27.3100016,61.2866686 27.6633314,61.6066654 28.0900002,61.86 C28.516669,62.1133346 29.0299972,62.24 29.6300002,62.24 C30.5500048,62.24 31.2699976,62.0000024 31.7900002,61.52 C32.3100028,61.0399976 32.6699992,60.400004 32.8700002,59.6 L34.1300002,59.6 C33.8633322,60.7733392 33.3733371,61.6799968 32.6600002,62.32 C31.9466633,62.9600032 30.9366734,63.28 29.6300002,63.28 C28.8166628,63.28 28.1133365,63.1366681 27.5200002,62.85 C26.9266639,62.5633319 26.4433354,62.1700025 26.0700002,61.67 C25.696665,61.1699975 25.4200011,60.5900033 25.2400002,59.93 C25.0599993,59.2699967 24.9700002,58.573337 24.9700002,57.84 C24.9700002,57.1599966 25.0599993,56.4933366 25.2400002,55.84 C25.4200011,55.1866634 25.696665,54.6033359 26.0700002,54.09 C26.4433354,53.5766641 26.9266639,53.1633349 27.5200002,52.85 C28.1133365,52.5366651 28.8166628,52.38 29.6300002,52.38 C30.456671,52.38 31.1633306,52.546665 31.7500002,52.88 C32.3366698,53.213335 32.8133317,53.6499973 33.1800002,54.19 C33.5466687,54.7300027 33.8099994,55.3499965 33.9700002,56.05 C34.130001,56.7500035 34.196667,57.4599964 34.1700002,58.18 L26.2300002,58.18 Z M45.3000003,52.68 L46.7000003,52.68 L49.9400003,61.74 L49.9800003,61.74 L53.1800003,52.68 L54.4800003,52.68 L50.6200003,63 L49.2800003,63 L45.3000003,52.68 Z M73.7300005,57.12 C73.7166671,56.6399976 73.6333346,56.1800022 73.4800005,55.74 C73.3266664,55.2999978 73.1100019,54.9100017 72.8300005,54.57 C72.5499991,54.2299983 72.2100025,53.9566677 71.8100005,53.75 C71.4099985,53.5433323 70.9566697,53.44 70.4500005,53.44 C69.9299979,53.44 69.4700025,53.5433323 69.0700005,53.75 C68.6699985,53.9566677 68.3300019,54.2299983 68.0500005,54.57 C67.7699991,54.9100017 67.546668,55.3033311 67.3800005,55.75 C67.213333,56.1966689 67.1033341,56.653331 67.0500005,57.12 L73.7300005,57.12 Z M67.0500005,58.18 C67.0500005,58.6333356 67.1133332,59.1033309 67.2400005,59.59 C67.3666678,60.0766691 67.5699991,60.5133314 67.8500005,60.9 C68.1300019,61.2866686 68.4833317,61.6066654 68.9100005,61.86 C69.3366693,62.1133346 69.8499975,62.24 70.4500005,62.24 C71.3700051,62.24 72.0899979,62.0000024 72.6100005,61.52 C73.1300031,61.0399976 73.4899995,60.400004 73.6900005,59.6 L74.9500005,59.6 C74.6833325,60.7733392 74.1933374,61.6799968 73.4800005,62.32 C72.7666636,62.9600032 71.7566737,63.28 70.4500005,63.28 C69.6366631,63.28 68.9333368,63.1366681 68.3400005,62.85 C67.7466642,62.5633319 67.2633357,62.1700025 66.8900005,61.67 C66.5166653,61.1699975 66.2400014,60.5900033 66.0600005,59.93 C65.8799996,59.2699967 65.7900005,58.573337 65.7900005,57.84 C65.7900005,57.1599966 65.8799996,56.4933366 66.0600005,55.84 C66.2400014,55.1866634 66.5166653,54.6033359 66.8900005,54.09 C67.2633357,53.5766641 67.7466642,53.1633349 68.3400005,52.85 C68.9333368,52.5366651 69.6366631,52.38 70.4500005,52.38 C71.2766713,52.38 71.9833309,52.546665 72.5700005,52.88 C73.1566701,53.213335 73.633332,53.6499973 74.0000005,54.19 C74.366669,54.7300027 74.6299997,55.3499965 74.7900005,56.05 C74.9500013,56.7500035 75.0166673,57.4599964 74.9900005,58.18 L67.0500005,58.18 Z M87.3000006,48.72 L88.5600006,48.72 L88.5600006,63 L87.3000006,63 L87.3000006,48.72 Z M105.930001,53.44 C105.329998,53.44 104.803336,53.5666654 104.350001,53.82 C103.896665,54.0733346 103.520002,54.4066646 103.220001,54.82 C102.919999,55.2333354 102.693335,55.7033307 102.540001,56.23 C102.386667,56.7566693 102.310001,57.2933306 102.310001,57.84 C102.310001,58.3866694 102.386667,58.9233307 102.540001,59.45 C102.693335,59.9766693 102.919999,60.4466646 103.220001,60.86 C103.520002,61.2733354 103.896665,61.6066654 104.350001,61.86 C104.803336,62.1133346 105.329998,62.24 105.930001,62.24 C106.530004,62.24 107.056665,62.1133346 107.510001,61.86 C107.963336,61.6066654 108.339999,61.2733354 108.640001,60.86 C108.940002,60.4466646 109.166667,59.9766693 109.320001,59.45 C109.473335,58.9233307 109.550001,58.3866694 109.550001,57.84 C109.550001,57.2933306 109.473335,56.7566693 109.320001,56.23 C109.166667,55.7033307 108.940002,55.2333354 108.640001,54.82 C108.339999,54.4066646 107.963336,54.0733346 107.510001,53.82 C107.056665,53.5666654 106.530004,53.44 105.930001,53.44 Z M105.930001,52.38 C106.716671,52.38 107.413331,52.5266652 108.020001,52.82 C108.62667,53.1133348 109.136665,53.5066642 109.550001,54 C109.963336,54.4933358 110.276666,55.0699967 110.490001,55.73 C110.703335,56.3900033 110.810001,57.0933296 110.810001,57.84 C110.810001,58.5866704 110.703335,59.2899967 110.490001,59.95 C110.276666,60.6100033 109.963336,61.1866642 109.550001,61.68 C109.136665,62.1733358 108.62667,62.5633319 108.020001,62.85 C107.413331,63.1366681 106.716671,63.28 105.930001,63.28 C105.14333,63.28 104.44667,63.1366681 103.840001,62.85 C103.233331,62.5633319 102.723336,62.1733358 102.310001,61.68 C101.896665,61.1866642 101.583335,60.6100033 101.370001,59.95 C101.156666,59.2899967 101.050001,58.5866704 101.050001,57.84 C101.050001,57.0933296 101.156666,56.3900033 101.370001,55.73 C101.583335,55.0699967 101.896665,54.4933358 102.310001,54 C102.723336,53.5066642 103.233331,53.1133348 103.840001,52.82 C104.44667,52.5266652 105.14333,52.38 105.930001,52.38 Z M123.280001,52.68 L124.440001,52.68 L124.440001,54.64 L124.480001,54.64 C124.773336,53.9199964 125.249998,53.3633353 125.910001,52.97 C126.570004,52.5766647 127.319997,52.38 128.160001,52.38 C128.946672,52.38 129.629998,52.5266652 130.210001,52.82 C130.790004,53.1133348 131.273332,53.5099975 131.660001,54.01 C132.04667,54.5100025 132.333333,55.0899967 132.520001,55.75 C132.706669,56.4100033 132.800001,57.106663 132.800001,57.84 C132.800001,58.573337 132.706669,59.2699967 132.520001,59.93 C132.333333,60.5900033 132.04667,61.1699975 131.660001,61.67 C131.273332,62.1700025 130.790004,62.5633319 130.210001,62.85 C129.629998,63.1366681 128.946672,63.28 128.160001,63.28 C127.786666,63.28 127.413336,63.2333338 127.040001,63.14 C126.666666,63.0466662 126.320003,62.9066676 126.000001,62.72 C125.679999,62.5333324 125.396669,62.3000014 125.150001,62.02 C124.903333,61.7399986 124.713335,61.4133352 124.580001,61.04 L124.540001,61.04 L124.540001,66.8 L123.280001,66.8 L123.280001,52.68 Z M131.540001,57.84 C131.540001,57.306664 131.476668,56.7766693 131.350001,56.25 C131.223334,55.7233307 131.023336,55.2533354 130.750001,54.84 C130.476666,54.4266646 130.12667,54.0900013 129.700001,53.83 C129.273332,53.5699987 128.760004,53.44 128.160001,53.44 C127.466664,53.44 126.88667,53.5599988 126.420001,53.8 C125.953332,54.0400012 125.580002,54.359998 125.300001,54.76 C125.02,55.160002 124.823335,55.626664 124.710001,56.16 C124.596667,56.693336 124.540001,57.2533304 124.540001,57.84 C124.540001,58.373336 124.603334,58.9033307 124.730001,59.43 C124.856668,59.9566693 125.063333,60.4266646 125.350001,60.84 C125.636669,61.2533354 126.009999,61.5899987 126.470001,61.85 C126.930003,62.1100013 127.493331,62.24 128.160001,62.24 C128.760004,62.24 129.273332,62.1100013 129.700001,61.85 C130.12667,61.5899987 130.476666,61.2533354 130.750001,60.84 C131.023336,60.4266646 131.223334,59.9566693 131.350001,59.43 C131.476668,58.9033307 131.540001,58.373336 131.540001,57.84 Z M161.740001,48.72 L166.680001,48.72 C168.853345,48.7733336 170.489996,49.3833275 171.590001,50.55 C172.690007,51.7166725 173.240001,53.4866548 173.240001,55.86 C173.240001,58.2333452 172.690007,60.0033275 171.590001,61.17 C170.489996,62.3366725 168.853345,62.9466664 166.680001,63 L161.740001,63 L161.740001,48.72 Z M163.100001,61.84 L166.000001,61.84 C167.026673,61.84 167.909998,61.7300011 168.650001,61.51 C169.390005,61.2899989 169.999999,60.9400024 170.480001,60.46 C170.960004,59.9799976 171.313333,59.3600038 171.540001,58.6 C171.766669,57.8399962 171.880001,56.926672 171.880001,55.86 C171.880001,54.793328 171.766669,53.8800038 171.540001,53.12 C171.313333,52.3599962 170.960004,51.7400024 170.480001,51.26 C169.999999,50.7799976 169.390005,50.4300011 168.650001,50.21 C167.909998,49.9899989 167.026673,49.88 166.000001,49.88 L163.100001,49.88 L163.100001,61.84 Z M193.210001,57.12 C193.196668,56.6399976 193.113335,56.1800022 192.960001,55.74 C192.806667,55.2999978 192.590003,54.9100017 192.310001,54.57 C192.03,54.2299983 191.690003,53.9566677 191.290001,53.75 C190.889999,53.5433323 190.436671,53.44 189.930001,53.44 C189.409999,53.44 188.950003,53.5433323 188.550001,53.75 C188.149999,53.9566677 187.810003,54.2299983 187.530001,54.57 C187.25,54.9100017 187.026669,55.3033311 186.860001,55.75 C186.693334,56.1966689 186.583335,56.653331 186.530001,57.12 L193.210001,57.12 Z M186.530001,58.18 C186.530001,58.6333356 186.593334,59.1033309 186.720001,59.59 C186.846669,60.0766691 187.05,60.5133314 187.330001,60.9 C187.610003,61.2866686 187.963333,61.6066654 188.390001,61.86 C188.81667,62.1133346 189.329998,62.24 189.930001,62.24 C190.850006,62.24 191.569999,62.0000024 192.090001,61.52 C192.610004,61.0399976 192.97,60.400004 193.170001,59.6 L194.430001,59.6 C194.163333,60.7733392 193.673338,61.6799968 192.960001,62.32 C192.246664,62.9600032 191.236675,63.28 189.930001,63.28 C189.116664,63.28 188.413338,63.1366681 187.820001,62.85 C187.226665,62.5633319 186.743337,62.1700025 186.370001,61.67 C185.996666,61.1699975 185.720002,60.5900033 185.540001,59.93 C185.36,59.2699967 185.270001,58.573337 185.270001,57.84 C185.270001,57.1599966 185.36,56.4933366 185.540001,55.84 C185.720002,55.1866634 185.996666,54.6033359 186.370001,54.09 C186.743337,53.5766641 187.226665,53.1633349 187.820001,52.85 C188.413338,52.5366651 189.116664,52.38 189.930001,52.38 C190.756672,52.38 191.463332,52.546665 192.050001,52.88 C192.636671,53.213335 193.113333,53.6499973 193.480001,54.19 C193.84667,54.7300027 194.110001,55.3499965 194.270001,56.05 C194.430002,56.7500035 194.496668,57.4599964 194.470001,58.18 L186.530001,58.18 Z M212.940002,55.7 C212.926668,55.3133314 212.846669,54.9766681 212.700002,54.69 C212.553334,54.4033319 212.356669,54.1666676 212.110002,53.98 C211.863334,53.7933324 211.580003,53.6566671 211.260002,53.57 C210.94,53.4833329 210.600003,53.44 210.240002,53.44 C209.96,53.44 209.67667,53.4699997 209.390002,53.53 C209.103333,53.5900003 208.840003,53.6899993 208.600002,53.83 C208.36,53.9700007 208.166669,54.1533322 208.020002,54.38 C207.873334,54.6066678 207.800002,54.886665 207.800002,55.22 C207.800002,55.5000014 207.870001,55.7366657 208.010002,55.93 C208.150002,56.1233343 208.326667,56.286666 208.540002,56.42 C208.753336,56.553334 208.986667,56.6633329 209.240002,56.75 C209.493336,56.8366671 209.726667,56.9066664 209.940002,56.96 L211.620002,57.34 C211.980003,57.3933336 212.336666,57.4899993 212.690002,57.63 C213.043337,57.7700007 213.356667,57.9533322 213.630002,58.18 C213.903336,58.4066678 214.126667,58.686665 214.300002,59.02 C214.473336,59.353335 214.560002,59.7466644 214.560002,60.2 C214.560002,60.7600028 214.433336,61.2366647 214.180002,61.63 C213.926667,62.0233353 213.603337,62.3433321 213.210002,62.59 C212.816666,62.8366679 212.373337,63.0133328 211.880002,63.12 C211.386666,63.2266672 210.900004,63.28 210.420002,63.28 C209.206662,63.28 208.223339,62.9933362 207.470002,62.42 C206.716664,61.8466638 206.286669,60.926673 206.180002,59.66 L207.440002,59.66 C207.493335,60.5133376 207.803332,61.1566645 208.370002,61.59 C208.936671,62.0233355 209.639997,62.24 210.480002,62.24 C210.78667,62.24 211.103333,62.206667 211.430002,62.14 C211.75667,62.073333 212.06,61.9600008 212.340002,61.8 C212.620003,61.6399992 212.850001,61.4366679 213.030002,61.19 C213.210002,60.9433321 213.300002,60.6400018 213.300002,60.28 C213.300002,59.9733318 213.236669,59.7166677 213.110002,59.51 C212.983334,59.3033323 212.813336,59.1300007 212.600002,58.99 C212.386667,58.8499993 212.143336,58.7333338 211.870002,58.64 C211.596667,58.5466662 211.320003,58.466667 211.040002,58.4 L209.420002,58.04 C209.006666,57.9333328 208.62667,57.8100007 208.280002,57.67 C207.933333,57.5299993 207.630003,57.3566677 207.370002,57.15 C207.11,56.9433323 206.906669,56.6900015 206.760002,56.39 C206.613334,56.0899985 206.540002,55.7200022 206.540002,55.28 C206.540002,54.7599974 206.656667,54.3133352 206.890002,53.94 C207.123336,53.5666648 207.426666,53.2666678 207.800002,53.04 C208.173337,52.8133322 208.589999,52.6466672 209.050002,52.54 C209.510004,52.4333328 209.966666,52.38 210.420002,52.38 C210.940004,52.38 211.423333,52.446666 211.870002,52.58 C212.31667,52.713334 212.71,52.9199986 213.050002,53.2 C213.390003,53.4800014 213.660001,53.8266646 213.860002,54.24 C214.060003,54.6533354 214.173335,55.1399972 214.200002,55.7 L212.940002,55.7 Z M226.990002,48.72 L228.250002,48.72 L228.250002,50.74 L226.990002,50.74 L226.990002,48.72 Z M226.990002,52.68 L228.250002,52.68 L228.250002,63 L226.990002,63 L226.990002,52.68 Z M249.980002,62.16 C249.980002,62.9200038 249.896669,63.6066636 249.730002,64.22 C249.563334,64.8333364 249.300004,65.3533312 248.940002,65.78 C248.58,66.2066688 248.110005,66.5333322 247.530002,66.76 C246.949999,66.9866678 246.240006,67.1 245.400002,67.1 C244.879999,67.1 244.373338,67.0400006 243.880002,66.92 C243.386666,66.7999994 242.943337,66.6133346 242.550002,66.36 C242.156667,66.1066654 241.830003,65.7833353 241.570002,65.39 C241.310001,64.9966647 241.160002,64.5266694 241.120002,63.98 L242.380002,63.98 C242.446669,64.3666686 242.576668,64.6899987 242.770002,64.95 C242.963336,65.2100013 243.196667,65.4199992 243.470002,65.58 C243.743337,65.7400008 244.046667,65.8566663 244.380002,65.93 C244.713337,66.0033337 245.053333,66.04 245.400002,66.04 C246.573341,66.04 247.419999,65.70667 247.940002,65.04 C248.460004,64.37333 248.720002,63.4133396 248.720002,62.16 L248.720002,60.76 L248.680002,60.76 C248.386667,61.4000032 247.956671,61.9133314 247.390002,62.3 C246.823332,62.6866686 246.160006,62.88 245.400002,62.88 C244.573331,62.88 243.866671,62.7433347 243.280002,62.47 C242.693332,62.1966653 242.210004,61.8200024 241.830002,61.34 C241.45,60.8599976 241.173336,60.2966699 241.000002,59.65 C240.826668,59.0033301 240.740002,58.313337 240.740002,57.58 C240.740002,56.8733298 240.843334,56.2033365 241.050002,55.57 C241.25667,54.9366635 241.556667,54.3833357 241.950002,53.91 C242.343337,53.4366643 242.829999,53.0633347 243.410002,52.79 C243.990005,52.5166653 244.653331,52.38 245.400002,52.38 C245.78667,52.38 246.15,52.4333328 246.490002,52.54 C246.830004,52.6466672 247.14,52.7966657 247.420002,52.99 C247.700003,53.1833343 247.950001,53.4066654 248.170002,53.66 C248.390003,53.9133346 248.560001,54.1799986 248.680002,54.46 L248.720002,54.46 L248.720002,52.68 L249.980002,52.68 L249.980002,62.16 Z M245.400002,61.82 C245.946671,61.82 246.426666,61.7033345 246.840002,61.47 C247.253337,61.2366655 247.6,60.9300019 247.880002,60.55 C248.160003,60.1699981 248.370001,59.7333358 248.510002,59.24 C248.650003,58.7466642 248.720002,58.2400026 248.720002,57.72 C248.720002,57.2133308 248.660002,56.7066692 248.540002,56.2 C248.420001,55.6933308 248.22667,55.2333354 247.960002,54.82 C247.693334,54.4066646 247.350004,54.0733346 246.930002,53.82 C246.51,53.5666654 246.000005,53.44 245.400002,53.44 C244.799999,53.44 244.286671,53.5633321 243.860002,53.81 C243.433333,54.0566679 243.080003,54.379998 242.800002,54.78 C242.52,55.180002 242.316669,55.6366641 242.190002,56.15 C242.063335,56.6633359 242.000002,57.186664 242.000002,57.72 C242.000002,58.2400026 242.066668,58.7466642 242.200002,59.24 C242.333336,59.7333358 242.54,60.1699981 242.820002,60.55 C243.100003,60.9300019 243.453333,61.2366655 243.880002,61.47 C244.306671,61.7033345 244.813332,61.82 245.400002,61.82 Z M262.950002,52.68 L264.210002,52.68 L264.210002,54.46 L264.250002,54.46 C264.490003,53.8333302 264.916666,53.3300019 265.530002,52.95 C266.143338,52.5699981 266.816665,52.38 267.550002,52.38 C268.270006,52.38 268.873333,52.4733324 269.360002,52.66 C269.846671,52.8466676 270.236667,53.1099983 270.530002,53.45 C270.823337,53.7900017 271.030001,54.2066642 271.150002,54.7 C271.270003,55.1933358 271.330002,55.7466636 271.330002,56.36 L271.330002,63 L270.070002,63 L270.070002,56.56 C270.070002,56.1199978 270.030002,55.7100019 269.950002,55.33 C269.870002,54.9499981 269.730003,54.6200014 269.530002,54.34 C269.330001,54.0599986 269.060004,53.8400008 268.720002,53.68 C268.38,53.5199992 267.956671,53.44 267.450002,53.44 C266.943333,53.44 266.493337,53.5299991 266.100002,53.71 C265.706667,53.8900009 265.373337,54.1366651 265.100002,54.45 C264.826667,54.7633349 264.613336,55.1366645 264.460002,55.57 C264.306668,56.0033355 264.223335,56.4733308 264.210002,56.98 L264.210002,63 L262.950002,63 L262.950002,52.68 Z" id="Develop-Design"></path>
            </g>
        </g>
    </g>
</svg>